<svg width="113" height="59" viewBox="0 0 113 59" fill="none" xmlns="http://www.w3.org/2000/svg">
<path d="M110.099 14.0834L103.71 2.3315L92.366 9.42042M110.099 14.0834L101.355 47.332M110.099 14.0834L101.232 11.7519M92.366 9.42042L101.232 11.7519M92.366 9.42042C92.366 9.42042 89.7017 19.5525 87.9945 26.0447C87.7514 26.9692 87.4888 27.9676 87.2173 29M101.355 47.332L98.7325 57.3065L81 52.6435L83.6229 42.669M101.355 47.332L92.4892 45.0005M83.6229 42.669L92.4892 45.0005M83.6229 42.669C83.6229 42.669 84.7454 38.4005 86 33.6294M92.4892 45.0005L101.232 11.7519M86 33.6294C86.4031 32.0965 86.8198 30.5118 87.2173 29M86 33.6294L87.2173 29" stroke="#0055A5" stroke-width="2" stroke-linecap="round"/>
<rect x="79" y="11" width="10" height="46" fill="#F1F7FC"/>
<rect x="1" y="4" width="84" height="52" rx="1" fill="#F1F7FC" stroke="#FF6400" stroke-width="2"/>
<line x1="8" y1="27" x2="47" y2="27" stroke="#0055A5" stroke-width="2" stroke-linecap="round"/>
<line x1="16" y1="1" x2="16" y2="7" stroke="#0055A5" stroke-width="2" stroke-linecap="round"/>
<line x1="48" y1="1" x2="48" y2="7" stroke="#0055A5" stroke-width="2" stroke-linecap="round"/>
<line x1="40" y1="1" x2="40" y2="7" stroke="#0055A5" stroke-width="2" stroke-linecap="round"/>
<line x1="72" y1="1" x2="72" y2="7" stroke="#0055A5" stroke-width="2" stroke-linecap="round"/>
<line x1="32" y1="1" x2="32" y2="7" stroke="#0055A5" stroke-width="2" stroke-linecap="round"/>
<line x1="64" y1="1" x2="64" y2="7" stroke="#0055A5" stroke-width="2" stroke-linecap="round"/>
<line x1="24" y1="1" x2="24" y2="7" stroke="#0055A5" stroke-width="2" stroke-linecap="round"/>
<line x1="56" y1="1" x2="56" y2="7" stroke="#0055A5" stroke-width="2" stroke-linecap="round"/>
<line x1="8" y1="43" x2="61" y2="43" stroke="#0055A5" stroke-width="2" stroke-linecap="round"/>
<line x1="8" y1="35" x2="73" y2="35" stroke="#0055A5" stroke-width="2" stroke-linecap="round"/>
</svg>
